<?xml version="1.0" standalone="no"?><!DOCTYPE svg PUBLIC "-//W3C//DTD SVG 1.1//EN" "http://www.w3.org/Graphics/SVG/1.1/DTD/svg11.dtd"><svg t="1548402604182" class="icon" style="" viewBox="0 0 1024 1024" version="1.1" xmlns="http://www.w3.org/2000/svg" p-id="4117" xmlns:xlink="http://www.w3.org/1999/xlink" width="200" height="200"><defs><style type="text/css"></style></defs><path d="M964.836 441.458L857.884 341.333 580.267 86.471c-18.205-18.204-45.511-29.582-72.818-29.582-27.307 0-54.613 11.378-72.818 29.582L59.164 441.458c-31.857 31.858-25.03 56.889-22.755 63.715 4.551 11.378 15.929 25.031 43.235 25.031h54.614c13.653 0 22.755 11.378 22.755 22.756v302.649c0 52.338 36.41 109.227 95.574 109.227h514.275c59.165 0 95.574-56.89 95.574-109.227V555.236c0-13.654 11.377-22.756 22.755-22.756h54.613c27.307 0 38.685-13.653 43.236-27.307 6.827-6.826 13.653-29.582-18.204-63.715z m-307.2 386.844c0 29.582-22.756 52.338-52.338 52.338h-184.32c-29.582 0-52.338-25.031-52.338-52.338V575.716c0-29.583 22.756-52.338 52.338-52.338h184.32c29.582 0 52.338 25.03 52.338 52.338v252.586z" p-id="4118"></path></svg>